<?xml version="1.0" encoding="UTF-8" standalone="no"?><!DOCTYPE svg PUBLIC "-//W3C//DTD SVG 1.1//EN" "http://www.w3.org/Graphics/SVG/1.1/DTD/svg11.dtd"><!-- Generated by graphviz version 2.40.1 (20161225.0304)
 --><!-- Title: %0 Pages: 1 --><svg xmlns="http://www.w3.org/2000/svg" xmlns:xlink="http://www.w3.org/1999/xlink" width="1265pt" height="188pt" viewBox="0.00 0.00 1264.73 188.00">
<g id="graph0" class="graph" transform="scale(1 1) rotate(0) translate(4 184)">
<title>%0</title>
<polygon fill="#ffffff" stroke="transparent" points="-4,4 -4,-184 1260.725,-184 1260.725,4 -4,4"/>
<!-- a -->
<g id="node1" class="node">
<title>a</title>
<ellipse fill="none" stroke="#000000" cx="522.4072" cy="-162" rx="243.5665" ry="18"/>
<text text-anchor="middle" x="522.4072" y="-157.8" font-family="Times,serif" font-size="14.00" fill="#000000">A: {  	x_0 = 5   	w_0 = x_0 - 3   	y_0 = 1   	y_0 &lt; 3 ? B : C} </text>
</g>
<!-- b -->
<g id="node2" class="node">
<title>b</title>
<ellipse fill="none" stroke="#000000" cx="202.4072" cy="-90" rx="202.3145" ry="18"/>
<text text-anchor="middle" x="202.4072" y="-85.8" font-family="Times,serif" font-size="14.00" fill="#000000">B: {  	y_1 = x_0 * (2 - y_0 + x_0 )  	w_1 = y_1 } </text>
</g>
<!-- a&#45;&gt;b -->
<g id="edge1" class="edge">
<title>a-&gt;b</title>
<path fill="none" stroke="#000000" d="M446.1658,-144.8457C398.2594,-134.0667 336.4014,-120.1487 286.9876,-109.0306"/>
<polygon fill="#000000" stroke="#000000" points="287.485,-105.5551 276.9606,-106.7745 285.9484,-112.3843 287.485,-105.5551"/>
</g>
<!-- c -->
<g id="node3" class="node">
<title>c</title>
<ellipse fill="none" stroke="#000000" cx="522.4072" cy="-90" rx="99.7262" ry="18"/>
<text text-anchor="middle" x="522.4072" y="-85.8" font-family="Times,serif" font-size="14.00" fill="#000000">C: {  	w_2 = z_0 + 9 } </text>
</g>
<!-- a&#45;&gt;c -->
<g id="edge2" class="edge">
<title>a-&gt;c</title>
<path fill="none" stroke="#000000" d="M522.4072,-143.8314C522.4072,-136.131 522.4072,-126.9743 522.4072,-118.4166"/>
<polygon fill="#000000" stroke="#000000" points="525.9073,-118.4132 522.4072,-108.4133 518.9073,-118.4133 525.9073,-118.4132"/>
</g>
<!-- d -->
<g id="node4" class="node">
<title>d</title>
<ellipse fill="none" stroke="#000000" cx="948.4072" cy="-90" rx="308.1358" ry="18"/>
<text text-anchor="middle" x="948.4072" y="-85.8" font-family="Times,serif" font-size="14.00" fill="#000000">D: {  	w_3 = x_0 - 3   	y_2 = x_0 + y_0   	w_4 = z_0 - 3 * (5 + w_3 + y_2 )} </text>
</g>
<!-- a&#45;&gt;d -->
<g id="edge3" class="edge">
<title>a-&gt;d</title>
<path fill="none" stroke="#000000" d="M620.1402,-145.4817C684.8612,-134.543 769.9005,-120.1701 837.2077,-108.7943"/>
<polygon fill="#000000" stroke="#000000" points="838.1511,-112.1846 847.428,-107.0669 836.9845,-105.2824 838.1511,-112.1846"/>
</g>
<!-- e -->
<g id="node5" class="node">
<title>e</title>
<ellipse fill="none" stroke="#000000" cx="522.4072" cy="-18" rx="384.0256" ry="18"/>
<text text-anchor="middle" x="522.4072" y="-13.8" font-family="Times,serif" font-size="14.00" fill="#000000">E: {  	y_3 = Ф( y_1 | y_0 | y_2 ) 	w_5 = Ф( w_1 | w_2 | w_4 ) 	x_1 = y_3   	z_0 = x_1 * w_5 } </text>
</g>
<!-- b&#45;&gt;e -->
<g id="edge4" class="edge">
<title>b-&gt;e</title>
<path fill="none" stroke="#000000" d="M277.0291,-73.2101C323.9387,-62.6554 384.6952,-48.9852 434.0149,-37.8883"/>
<polygon fill="#000000" stroke="#000000" points="435.0494,-41.2431 444.0372,-35.6333 433.5128,-34.4138 435.0494,-41.2431"/>
</g>
<!-- c&#45;&gt;e -->
<g id="edge5" class="edge">
<title>c-&gt;e</title>
<path fill="none" stroke="#000000" d="M522.4072,-71.8314C522.4072,-64.131 522.4072,-54.9743 522.4072,-46.4166"/>
<polygon fill="#000000" stroke="#000000" points="525.9073,-46.4132 522.4072,-36.4133 518.9073,-46.4133 525.9073,-46.4132"/>
</g>
<!-- d&#45;&gt;e -->
<g id="edge6" class="edge">
<title>d-&gt;e</title>
<path fill="none" stroke="#000000" d="M847.721,-72.9826C783.9555,-62.2053 701.3804,-48.249 635.3818,-37.0943"/>
<polygon fill="#000000" stroke="#000000" points="635.797,-33.6149 625.3535,-35.3994 634.6304,-40.517 635.797,-33.6149"/>
</g>
</g>
</svg>